<?xml version="1.0" encoding="utf-8"?>
<!-- Generator: Adobe Illustrator 21.0.0, SVG Export Plug-In . SVG Version: 6.00 Build 0)  -->
<svg version="1.1" id="Layer_1" xmlns="http://www.w3.org/2000/svg" xmlns:xlink="http://www.w3.org/1999/xlink" x="0px" y="0px"
	 viewBox="0 0 1280 792" style="enable-background:new 0 0 1280 792;" xml:space="preserve">
<style type="text/css">
	.st0{fill:#FFFFFF;}
</style>
<path class="st0" d="M-185,510.1c-133.3,0-266.7,0-400,0c0-133.3,0-266.7,0-400c133.3,0,266.7,0,400,0
	C-185,243.5-185,376.8-185,510.1z M-393.6,445.8c35.2-0.1,54.8-3.9,75.4-13.9c43.8-21.2,72.5-54.8,82.3-103.1
	c6.9-33.8,1.7-66.1-15.6-95.9c-22.1-37.9-54.9-61.7-97.8-71.1c-37.8-8.3-74.1-3.5-107.6,15.9c-44.2,25.6-70,63.8-73.9,115.6
	c-1.9,25.9,2.8,50.7,15.4,73.3C-486.4,418.4-441.3,443.9-393.6,445.8z"/>
<path class="st0" d="M628.4,531.7c-47.8-1.9-92.9-27.4-121.8-79.2c-12.6-22.6-17.4-47.4-15.4-73.3c3.9-51.7,29.7-89.9,73.9-115.6
	c33.5-19.4,69.7-24.2,107.6-15.9c42.9,9.4,75.7,33.2,97.8,71.1c17.4,29.8,22.5,62,15.6,95.9c-9.8,48.3-38.5,81.9-82.3,103.1
	C683.2,527.8,663.6,531.7,628.4,531.7z M516.5,385C516.5,385,516.5,384.9,516.5,385c3.7,0,7.4-0.3,11,0.1c1.6,0.2,3.1,1.6,4.6,2.5
	c-1.6,1-3.1,2.9-4.8,3c-6.8,0.3-13.7,0.1-20.5,0.2c-5.5,0.1-6.5,1.2-6,6.6c2.2,23.3,9,45,22.6,64.1c24.4,34.4,57.4,54.5,99.4,59.8
	c34.1,4.3,65.7-2.9,94.2-21.6c36.8-24.2,58.1-58.2,61.8-102.5c0.4-5-0.7-6.4-5.7-6.5c-6.8-0.1-13.7,0.1-20.5-0.2
	c-1.6-0.1-3.1-1.6-4.6-2.5c1.5-1,3.1-2.9,4.7-3c7.1-0.3,14.3-0.2,21.5-0.1c3.6,0,5-1.6,4.8-5.3c-1.3-19.6-6.4-38.1-16.2-55
	c-19.5-33.6-48-55.8-85.6-66.2c-23-6.4-46.1-6.7-69.2-1.5c-23.4,5.2-44.3,16.1-62.3,32.1c-26.8,23.9-41.6,53.9-45,89.6
	c-0.4,4.6,1.2,6.5,5.8,6.3C509.8,384.9,513.1,385,516.5,385z"/>
<path class="st0" d="M-508.4,307.2c-3.3,0-6.7-0.1-10,0c-4.5,0.2-6.2-1.7-5.8-6.3c3.4-35.7,18.2-65.7,45-89.6
	c18-16,38.8-26.9,62.3-32.1c23.1-5.2,46.2-4.8,69.2,1.5c37.6,10.4,66.2,32.6,85.6,66.2c9.8,16.9,14.9,35.5,16.2,55
	c0.2,3.7-1.2,5.3-4.8,5.3c-7.2,0-14.3-0.2-21.5,0.1c-1.6,0.1-3.1,1.9-4.7,3c1.5,0.9,3.1,2.4,4.6,2.5c6.8,0.3,13.7,0.1,20.5,0.2
	c5,0.1,6.1,1.5,5.7,6.5c-3.8,44.3-25.1,78.3-61.8,102.5c-28.5,18.7-60.1,25.9-94.2,21.6c-42-5.3-75.1-25.4-99.4-59.8
	c-13.6-19.2-20.5-40.9-22.6-64.1c-0.5-5.4,0.5-6.5,6-6.6c6.8-0.1,13.7,0.2,20.5-0.2c1.6-0.1,3.2-1.9,4.8-3c-1.5-0.9-3-2.3-4.6-2.5
	C-501,306.9-504.7,307.1-508.4,307.2C-508.4,307.1-508.4,307.2-508.4,307.2z M-402.1,336.6c-4.2-0.9-7.8,0.3-9.9,5.9
	c-5.6,15.1-11.9,29.9-17.7,45c-2.6,6.6-2.3,6.8,4.8,6.7c3.6-0.1,8.4,1.5,9.9-3.5c1.8-5.8,5.7-6.6,10.8-6.2c3.3,0.2,6.7-0.2,10,0.2
	c1.8,0.2,4.6,1.4,4.8,2.6c1.4,7,6.2,7.2,11.7,7c6.6-0.2,7.1-0.8,4.8-6.9c-5.5-14.4-11.1-28.8-16.8-43.2
	C-392.6,336.6-392.7,336.6-402.1,336.6z M-480,389.7c10.8,6.6,21.7,8.7,33.3,3.2c7.8-3.7,9.9-10.7,9.6-18.7
	c-0.3-7.4-4.6-11.4-11.2-13.5c-2.8-0.9-5.8-1.7-8.5-2.8c-2.7-1.2-6.5-2.7-4.9-6.2c0.9-2,4.5-3.2,7.1-3.9c1.5-0.4,3.5,0.7,5.2,1.4
	c5.4,2.1,5,0.2,8.3-5.7c2.1-3.7-1.3-4.8-3.6-5.6c-7.1-2.5-14.3-3.1-21.6-0.9c-7.2,2.1-12.1,9.7-12.1,17.7c0,8.2,3.3,12.1,12,14.9
	c3.3,1,6.8,1.9,9.7,3.6c1.6,1,3.4,3.9,3,5.4c-0.5,1.8-3,4.2-4.9,4.4c-3.1,0.4-6.7-0.1-9.6-1.4c-6.9-3-7.1-3.2-10.2,3.8
	C-479,386.6-479.4,388-480,389.7z M-455.1,282.3c0.7,0,2-0.1,3.3-0.2c15.3-1.2,25.5-17.2,20.1-31.6c-5.6-14.9-23-18.6-35.6-13.1
	c-7.9,3.4-13.4,9.4-14,18.5C-482.1,271.8-471.9,282.3-455.1,282.3z M-317.7,371.2c0,4.5,0,9,0,13.5c0,9.7,0,9.6,9.9,9.6
	c4.3,0,6-1.4,5.9-5.8c-0.2-10.5-0.1-21-0.1-31.4c0-7.4,0-7.6,7.2-7.7c5.1,0,5.3-3.1,5.5-6.9c0.2-4.2-1.3-6-5.7-5.9
	c-9.5,0.2-19,0-28.4,0.1c-6.8,0-7.3,0.7-7.2,7.4c0.1,5.2,3.2,5.6,7,5.3c4.5-0.4,6.4,1.3,6.1,6C-318,360.6-317.7,365.9-317.7,371.2z
	 M-410.3,267.2c0.7-0.2,1.5-0.3,2.2-0.5c2,2.8,4.3,5.4,5.8,8.4c2.7,5.2,6.7,7,12.2,6.1c1.4-0.2,3-0.7,3.8-1.6
	c0.4-0.4-0.5-2.4-1.2-3.4c-1.9-2.7-3.9-5.4-6.2-7.8c-3.3-3.4-3.1-5.5,1-8.5c7.8-5.7,6-19.3-3.1-21.7c-7.3-2-15.4-1.6-23.1-1.8
	c-0.9,0-2.6,2.5-2.6,3.9c-0.2,12.1-0.1,24.3-0.1,36.4c0,3.8,2.1,4.7,5.5,4.6c3.3-0.1,6.1-0.2,6-4.6
	C-410.3,273.6-410.3,270.4-410.3,267.2z M-333.3,237.5c3.7,5.3,6.9,10.4,10.5,15c2.7,3.4,2.4,6.1-0.2,9.3c-3.6,4.4-7,8.9-10.3,13.5
	c-1.1,1.5-1.7,3.3-2.6,5.1c9.9,2.4,11.7,1.8,17.4-6.2c5.6-7.9,6.3-8,11.3,0.3c2.8,4.7,5.9,8,11.8,6.8c1.5-0.3,2.9-1,4.4-1.5
	c-0.5-1.3-0.7-2.9-1.5-4c-3.3-4.8-6.5-9.7-10.1-14.2c-2.5-3.1-2.5-5.6,0-8.9c3.7-4.8,6.9-9.9,10.5-15c-7.9-3.3-12.8-1.9-16.8,4.3
	c-3.4,5.2-4.1,5.3-7.3,0.2C-320.4,235.7-324.3,234.5-333.3,237.5z M-363,365.1c0,8,0,16,0,24c0,3.2,1.2,5.1,4.6,5.1
	c8.5,0,17,0.1,25.5-0.1c1.3,0,3.3-1.2,3.7-2.4c2.3-6.1-0.1-9.4-6.5-9.5c-2,0-4-0.2-6,0c-4.5,0.4-6.3-1.5-6.2-6c0.2-10,0.1-20,0.1-30
	c0-10.2,0-10.1-10.1-9.8c-3.6,0.1-5.1,1.5-5.1,5.1C-362.9,349.5-363,357.3-363,365.1z M-480,308.6C-480,308.6-480,308.6-480,308.6
	c0,4.7,0,9.3,0,14c0,3,1.4,4.9,4.5,4.7c5.6-0.4,11.3-0.5,16.7-1.8c6.8-1.6,11.7-8.8,12-16.1c0.3-6.8-4.1-14.5-10.7-16.5
	c-5.6-1.7-11.7-1.8-17.6-2.5c-3.6-0.4-5.1,1.7-5,5.2C-480,300-480,304.3-480,308.6z M-340.1,237.3c-10.1-2.6-12.6-1.7-17.4,5.1
	c-0.5,0.7-0.9,1.4-1.4,2.1c-2.1,2.6-4.1,3.4-6.2,0c-1.2-2-2.6-3.8-4.1-5.6c-2-2.4-12.3-4-12.6-2c-0.3,2.5,1.9,5.3,3,7.9
	c0.1,0.3,0.3,0.6,0.6,0.8c7.9,8.6,12.3,18.3,10.5,30.3c-0.7,4.4,2,5.6,6.1,5.6c4.3,0.1,5.6-1.9,5.4-5.8c-0.1-1.5,0.2-3,0-4.5
	c-1.3-8.2,1.5-14.9,6.8-21C-346.1,246.3-343.4,242-340.1,237.3z M-318.4,326.3c-2.3-3.2-4-6-6.1-8.3c-2.8-3.1-3.4-5.2,0.3-8.4
	c6.3-5.5,4.9-14.7-3-17.3c-5.8-1.9-12.4-1.4-18.6-1.6c-0.7,0-2.2,2.4-2.2,3.7c-0.2,9.5-0.1,19-0.1,28.4c0,3,1.2,4.6,4.5,4.5
	c3.1-0.1,4.6-1.4,4.7-4.5c0.1-2,0.3-4.1,0.5-6.1c0.5-0.2,0.9-0.3,1.4-0.5c1.6,2,3.3,3.8,4.8,5.9
	C-328.3,327.8-326.5,328.4-318.4,326.3z M-399.4,328.7c8.3-0.6,13.1-4.1,14.5-10.9c1.2-5.9-1.2-9.3-8.5-12.6
	c-2.5-1.1-7.4-0.8-6.2-5.3c0.3-1.1,5.1-0.8,7.7-1.7c1.6-0.6,3.4-1.8,4.2-3.2c0.4-0.7-1.2-3.7-1.9-3.7c-5-0.3-10.4-1.1-15,0.4
	c-5,1.6-6.5,6.7-5.9,12c0.6,5.7,5,6.8,9.3,8.3c2.8,1,7.3,1.4,5.9,5.7c-1.4,4.1-5.4,2.8-8.6,1.8c-0.3-0.1-0.6-0.5-0.9-0.4
	c-1.8,0.5-4.2,0.4-5.2,1.6c-1.6,2-1.2,4.5,1.8,5.5C-405.4,327.1-402.4,327.9-399.4,328.7z M-377.8,308.7
	C-377.8,308.7-377.8,308.7-377.8,308.7c0,4.8-0.2,9.7,0.2,14.5c0.1,1.5,1.9,3.9,3.1,4c5,0.4,10,0.4,14.9,0c1.2-0.1,2.8-2.5,3-4
	c0.1-0.9-1.9-2.5-3.2-3.2c-1.1-0.5-2.8,0.2-3.9-0.3c-1.6-0.8-2.8-2.2-4.1-3.4c1.3-1.2,2.4-3,4-3.5c2.6-0.8,6.7,0.7,6.8-3.9
	c0.1-4.5-3.8-3.7-6.7-4c-0.2,0-0.4,0-0.5-0.1c-1.2-1.1-2.4-2.3-3.6-3.4c1.2-1,2.3-2.4,3.7-3c1.1-0.5,2.6-0.2,3.9-0.1
	c2.7,0.1,4.5-1.3,3.7-3.9c-0.4-1.5-2.4-3.6-3.9-3.7c-4.4-0.5-9-0.1-13.5-0.2c-3.2-0.1-4,1.5-4,4.3
	C-377.8,299.4-377.8,304-377.8,308.7z M-440.2,308.7C-440.2,308.7-440.2,308.7-440.2,308.7c0,4.8-0.2,9.7,0.1,14.5
	c0.1,1.4,1.6,3.9,2.7,3.9c5.3,0.4,10.7,0.4,15.9,0c1-0.1,2.4-2.5,2.5-3.9c0.1-1-1.5-2.6-2.7-3.2c-1.3-0.6-3.1,0.2-4.4-0.3
	c-1.5-0.7-2.7-2.2-4-3.4c1.2-1.2,2.3-3.1,3.8-3.6c2.7-1,7.2,1.1,7.1-4c-0.1-4.8-4.5-3-7.3-3.9c-1.4-0.5-2.4-2.1-3.6-3.3
	c1.2-1.1,2.2-2.5,3.6-3.1c1.1-0.5,2.6-0.2,3.9-0.1c2.7,0.1,4-1,3.9-3.8c-0.1-2.6-1-4.1-3.8-4c-4.3,0.1-8.7,0.1-13,0
	c-3.6-0.2-4.7,1.5-4.7,4.8C-440.1,299.7-440.2,304.2-440.2,308.7z M-306.9,312.5c0,3.2,0,6.3,0,9.5c-0.1,3.2,0.5,5.6,4.5,5.5
	c3.8-0.1,5.3-2,5.3-5.6c-0.1-5.8,0-11.6,0-17.4c0-3.4,0.3-6.2,4.9-6.4c1.1,0,3.2-2.4,3-3.4c-0.2-1.5-2-3.8-3.2-3.9
	c-6.4-0.4-12.9-0.4-19.4,0c-1.1,0.1-2.8,2.5-3,3.9c-0.1,1.1,1.8,3.5,2.8,3.5c5-0.2,5.3,2.7,5.1,6.4
	C-307,307.2-306.9,309.8-306.9,312.5z"/>
<path class="st0" d="M622.8,414.4c9.3,0,9.4,0,12.5,7.6c5.7,14.4,11.2,28.8,16.8,43.2c2.4,6.2,1.8,6.7-4.8,6.9
	c-5.5,0.2-10.3-0.1-11.7-7c-0.2-1.2-3.1-2.4-4.8-2.6c-3.3-0.4-6.7,0-10-0.2c-5-0.3-9,0.4-10.8,6.2c-1.5,5-6.2,3.4-9.9,3.5
	c-7.1,0.1-7.4-0.1-4.8-6.7c5.8-15,12.1-29.9,17.7-45C615,414.7,618.6,413.6,622.8,414.4z M624.7,434.6c-0.6,0-1.1,0-1.7,0
	c-1.6,4.4-3.6,8.7-4.6,13.2c-0.7,3.5,2.7,3.1,4.9,3.2c2.5,0,6.3,0.7,5.6-3.4C628,443.1,626.1,438.9,624.7,434.6z"/>
<path class="st0" d="M544.8,467.5c0.6-1.7,1.1-3.1,1.7-4.4c3.2-7,3.3-6.8,10.2-3.8c2.9,1.3,6.5,1.7,9.6,1.4c1.9-0.2,4.5-2.6,4.9-4.4
	c0.4-1.5-1.4-4.5-3-5.4c-2.9-1.8-6.4-2.6-9.7-3.6c-8.7-2.7-12-6.7-12-14.9c0-8.1,5-15.6,12.1-17.7c7.2-2.2,14.5-1.5,21.6,0.9
	c2.4,0.8,5.7,2,3.6,5.6c-3.4,5.9-3,7.8-8.3,5.7c-1.7-0.7-3.7-1.8-5.2-1.4c-2.6,0.7-6.2,1.9-7.1,3.9c-1.6,3.5,2.2,5,4.9,6.2
	c2.7,1.2,5.6,1.9,8.5,2.8c6.6,2.1,10.9,6.1,11.2,13.5c0.3,8-1.8,15-9.6,18.7C566.5,476.2,555.6,474.1,544.8,467.5z"/>
<path class="st0" d="M569.7,360.1c-16.7,0-27-10.5-26.1-26.4c0.5-9.1,6-15.1,14-18.5c12.6-5.4,30-1.7,35.6,13.1
	c5.4,14.4-4.8,30.4-20.1,31.6C571.7,360,570.4,360,569.7,360.1z M568.8,349.1c7.8,0.1,13.2-5.2,13.3-13c0.1-6.9-5.4-12.1-12.8-12.3
	c-7.6-0.1-13.6,5.3-13.5,12.3C555.8,343.3,561.6,349.1,568.8,349.1z"/>
<path class="st0" d="M707.1,449c0-5.3-0.3-10.7,0.1-16c0.3-4.7-1.6-6.4-6.1-6c-3.8,0.3-7-0.1-7-5.3c-0.1-6.7,0.4-7.4,7.2-7.4
	c9.5,0,19,0.1,28.4-0.1c4.4-0.1,5.9,1.7,5.7,5.9c-0.1,3.8-0.3,6.9-5.5,6.9c-7.2,0-7.2,0.3-7.2,7.7c0,10.5-0.2,21,0.1,31.4
	c0.1,4.4-1.6,5.8-5.9,5.8c-9.9,0-9.9,0.1-9.9-9.6C707.1,458,707.1,453.5,707.1,449z"/>
<path class="st0" d="M614.6,345c0,3.2,0,6.4,0,9.6c0.1,4.3-2.7,4.5-6,4.6c-3.4,0.1-5.5-0.8-5.5-4.6c0-12.1-0.1-24.3,0.1-36.4
	c0-1.4,1.8-3.9,2.6-3.9c7.7,0.3,15.7-0.1,23.1,1.8c9.1,2.5,10.9,16.1,3.1,21.7c-4.1,3-4.3,5.1-1,8.5c2.3,2.4,4.3,5.1,6.2,7.8
	c0.7,1,1.6,3,1.2,3.4c-0.8,0.9-2.4,1.4-3.8,1.6c-5.5,0.9-9.6-0.9-12.2-6.1c-1.5-3-3.9-5.6-5.8-8.4C616,344.7,615.3,344.8,614.6,345z
	 M618.2,323c-3.8,0.4-3.6,3.2-3.5,5.9c0.1,2.5,0.1,5.4,3.8,5c3.1-0.3,6.1-1.5,6.2-5.3C624.6,324.6,621.5,323.6,618.2,323z"/>
<path class="st0" d="M691.6,315.3c8.9-3,12.9-1.8,17,4.6c3.3,5,3.9,5,7.3-0.2c4-6.2,8.9-7.5,16.8-4.3c-3.5,5.1-6.7,10.3-10.5,15
	c-2.5,3.2-2.4,5.7,0,8.9c3.6,4.6,6.8,9.4,10.1,14.2c0.8,1.2,1,2.7,1.5,4c-1.5,0.5-2.9,1.2-4.4,1.5c-5.9,1.2-9-2.2-11.8-6.8
	c-5-8.3-5.6-8.1-11.3-0.3c-5.7,8-7.5,8.7-17.4,6.2c0.9-1.8,1.5-3.6,2.6-5.1c3.3-4.6,6.7-9.1,10.3-13.5c2.6-3.2,3-5.9,0.2-9.3
	C698.4,325.7,695.2,320.6,691.6,315.3z"/>
<path class="st0" d="M661.9,442.9c0-7.8,0.1-15.7,0-23.5c0-3.6,1.5-5,5.1-5.1c10.1-0.4,10.1-0.5,10.1,9.8c0,10,0.1,20-0.1,30
	c-0.1,4.5,1.7,6.4,6.2,6c2-0.2,4,0,6,0c6.5,0,8.8,3.3,6.5,9.5c-0.4,1.1-2.4,2.3-3.7,2.4c-8.5,0.2-17,0.1-25.5,0.1
	c-3.4,0-4.6-1.9-4.6-5.1C661.9,458.9,661.9,450.9,661.9,442.9z"/>
<path class="st0" d="M544.8,386.4c0-4.3,0.1-8.7,0-13c-0.1-3.5,1.3-5.6,5-5.2c5.9,0.6,11.9,0.8,17.6,2.5c6.6,2,11,9.7,10.7,16.5
	c-0.3,7.3-5.1,14.5-12,16.1c-5.4,1.3-11.1,1.4-16.7,1.8c-3.1,0.2-4.5-1.7-4.5-4.7C544.8,395.8,544.8,391.1,544.8,386.4
	C544.8,386.4,544.8,386.4,544.8,386.4z M554.4,386.4c0,2-0.1,4,0,6c0.2,4.7,2,5.8,6.4,4.3c3.9-1.4,6.5-3.9,7.1-8.1
	c0.7-4.8-1.2-8.4-5.3-10.8c-5.4-3.2-8.1-1.8-8.2,4.3C554.4,383.4,554.4,384.9,554.4,386.4z"/>
<path class="st0" d="M684.8,315.1c-3.3,4.7-6,9.1-9.3,12.9c-5.2,6.1-8.1,12.8-6.8,21c0.2,1.5,0,3,0,4.5c0.2,3.9-1.1,5.8-5.4,5.8
	c-4.1-0.1-6.8-1.3-6.1-5.6c1.8-12-2.6-21.7-10.5-30.3c-0.2-0.2-0.4-0.5-0.6-0.8c-1.1-2.6-3.3-5.4-3-7.9c0.3-1.9,10.6-0.4,12.6,2
	c1.5,1.8,2.9,3.7,4.1,5.6c2.1,3.4,4.1,2.6,6.2,0c0.5-0.7,0.9-1.4,1.4-2.1C672.1,313.3,674.7,312.5,684.8,315.1z"/>
<path class="st0" d="M706.4,404.1c-8.1,2.2-9.9,1.5-13.9-4.1c-1.5-2.1-3.2-3.9-4.8-5.9c-0.5,0.2-0.9,0.3-1.4,0.5
	c-0.2,2-0.4,4.1-0.5,6.1c-0.1,3.1-1.6,4.4-4.7,4.5c-3.3,0.1-4.5-1.5-4.5-4.5c0-9.5-0.1-19,0.1-28.4c0-1.3,1.5-3.7,2.2-3.7
	c6.2,0.2,12.8-0.3,18.6,1.6c7.8,2.5,9.2,11.8,3,17.3c-3.7,3.2-3.2,5.3-0.3,8.4C702.5,398.1,704.1,400.9,706.4,404.1z M684,380.3
	c2.7,1.9,4.4,4,5.7,3.8c1.5-0.3,4.1-2.8,3.8-3.8c-0.4-1.7-2.4-3.7-4.1-4.2C688.4,375.9,686.6,378.2,684,380.3z"/>
<path class="st0" d="M625.5,406.5c-3-0.9-6-1.7-8.9-2.7c-3-1-3.4-3.5-1.8-5.5c0.9-1.2,3.4-1.2,5.2-1.6c0.2-0.1,0.6,0.3,0.9,0.4
	c3.2,1,7.3,2.3,8.6-1.8c1.4-4.2-3.1-4.7-5.9-5.7c-4.3-1.5-8.7-2.7-9.3-8.3c-0.5-5.3,0.9-10.4,5.9-12c4.6-1.4,10-0.6,15-0.4
	c0.8,0,2.3,3,1.9,3.7c-0.8,1.4-2.6,2.7-4.2,3.2c-2.6,0.9-7.4,0.6-7.7,1.7c-1.2,4.6,3.6,4.2,6.2,5.3c7.2,3.3,9.7,6.6,8.5,12.6
	C638.5,402.5,633.7,405.9,625.5,406.5z"/>
<path class="st0" d="M647,386.5c0-4.7,0-9.3,0-14c0-2.8,0.8-4.4,4-4.3c4.5,0.1,9-0.3,13.5,0.2c1.5,0.2,3.4,2.2,3.9,3.7
	c0.7,2.5-1,4-3.7,3.9c-1.3,0-2.8-0.4-3.9,0.1c-1.4,0.6-2.5,2-3.7,3c1.2,1.1,2.4,2.3,3.6,3.4c0.1,0.1,0.3,0,0.5,0.1
	c2.9,0.3,6.7-0.5,6.7,4c-0.1,4.6-4.1,3-6.8,3.9c-1.5,0.5-2.7,2.3-4,3.5c1.4,1.2,2.6,2.6,4.1,3.4c1.1,0.5,2.8-0.2,3.9,0.3
	c1.4,0.7,3.4,2.3,3.2,3.2c-0.2,1.5-1.8,3.9-3,4c-4.9,0.5-10,0.5-14.9,0c-1.2-0.1-2.9-2.5-3.1-4C646.8,396.2,647.1,391.3,647,386.5
	C647.1,386.5,647.1,386.5,647,386.5z"/>
<path class="st0" d="M584.6,386.5c0-4.5,0.1-9,0-13.5c-0.1-3.3,1.1-5,4.7-4.8c4.3,0.2,8.7,0.1,13,0c2.9-0.1,3.7,1.4,3.8,4
	c0.1,2.8-1.2,4-3.9,3.8c-1.3-0.1-2.9-0.4-3.9,0.1c-1.4,0.7-2.4,2.1-3.6,3.1c1.2,1.1,2.2,2.8,3.6,3.3c2.7,0.9,7.1-0.9,7.3,3.9
	c0.1,5.1-4.4,3-7.1,4c-1.5,0.5-2.5,2.4-3.8,3.6c1.3,1.2,2.5,2.7,4,3.4c1.3,0.6,3.1-0.2,4.4,0.3c1.2,0.5,2.8,2.1,2.7,3.2
	c-0.1,1.4-1.5,3.9-2.5,3.9c-5.3,0.4-10.7,0.4-15.9,0c-1-0.1-2.6-2.5-2.7-3.9C584.5,396.2,584.7,391.3,584.6,386.5
	C584.7,386.5,584.7,386.5,584.6,386.5z"/>
<path class="st0" d="M717.9,390.3c0-2.7-0.1-5.3,0-8c0.2-3.7-0.2-6.6-5.1-6.4c-1,0-2.9-2.4-2.8-3.5c0.2-1.5,1.8-3.9,3-3.9
	c6.5-0.4,12.9-0.4,19.4,0c1.2,0.1,3,2.4,3.2,3.9c0.2,1-1.9,3.4-3,3.4c-4.6,0.1-4.9,3-4.9,6.4c0,5.8,0,11.6,0,17.4
	c0,3.6-1.4,5.5-5.3,5.6c-4.1,0.1-4.6-2.3-4.5-5.5C718,396.6,717.9,393.4,717.9,390.3z"/>
<path class="st0" d="M-67.5,387.8c1.4,4.3,3.4,8.5,4.1,12.9c0.7,4.1-3.1,3.5-5.6,3.4c-2.2,0-5.6,0.3-4.9-3.2c1-4.5,3-8.8,4.6-13.2
	C-68.6,387.8-68,387.8-67.5,387.8z"/>
<path class="st0" d="M-455.2,273.8c-7.2-0.1-13-5.9-13-13c0-7,5.9-12.4,13.5-12.3c7.4,0.1,12.9,5.4,12.8,12.3
	C-442,268.6-447.4,273.9-455.2,273.8z"/>
<path class="st0" d="M-60.3,278.5c3.3,0.6,6.4,1.6,6.4,5.6c-0.1,3.8-3.1,4.9-6.2,5.3c-3.6,0.4-3.7-2.5-3.8-5
	C-63.9,281.7-64.1,278.9-60.3,278.5z"/>
<path class="st0" d="M-109.4,422.4c0-1.5,0-3,0-4.5c0.2-6.1,2.9-7.5,8.2-4.3c4.1,2.5,6,6.1,5.3,10.8c-0.6,4.2-3.2,6.7-7.1,8.1
	c-4.4,1.6-6.2,0.4-6.4-4.3C-109.5,426.4-109.4,424.4-109.4,422.4z"/>
<path class="st0" d="M-68.6,539.8c2.6-2.1,4.4-4.4,5.4-4.1c1.7,0.5,3.7,2.5,4.1,4.2c0.2,1-2.3,3.5-3.8,3.8
	C-64.2,543.8-65.9,541.7-68.6,539.8z"/>
</svg>
